<svg width="19" height="19" viewBox="0 0 19 19" fill="none" xmlns="http://www.w3.org/2000/svg">
<path d="M8.76482 1.38916C8.84425 1.1689 9.15575 1.1689 9.23518 1.38916L11.0596 6.44854C11.1639 6.73767 11.434 6.93393 11.7412 6.94374L17.1167 7.11544C17.3507 7.12291 17.447 7.41917 17.2621 7.56277L13.0141 10.8613C12.7713 11.0498 12.6682 11.3674 12.7538 11.6626L14.2516 16.8281C14.3168 17.053 14.0648 17.2361 13.8711 17.1046L9.42124 14.0838C9.16695 13.9112 8.83305 13.9112 8.57876 14.0838L4.12894 17.1046C3.93521 17.2361 3.6832 17.053 3.74841 16.8281L5.24625 11.6626C5.33185 11.3674 5.22867 11.0498 4.98591 10.8613L0.73793 7.56277C0.552994 7.41917 0.649254 7.12291 0.883277 7.11544L6.25881 6.94374C6.56601 6.93393 6.83613 6.73767 6.9404 6.44854L8.76482 1.38916Z" fill="#FF8A00" stroke="#FF8A00" stroke-width="0.5"/>
</svg>
