<svg width="48" height="48" viewBox="0 0 48 48" fill="none" xmlns="http://www.w3.org/2000/svg">
<circle cx="24" cy="24" r="24" fill="#1BC15E"/>
<path d="M19.016 34.056C19.016 33.84 18.992 33.744 18.896 33.744L18.344 34.008C18.344 33.888 18.272 33.816 18.152 33.768L17.96 33.744C17.792 33.744 17.72 33.768 17.48 33.912C17.408 33.768 17.312 33.6 17.24 33.456C16.616 32.256 15.968 30.456 15.68 29.664C15.536 29.256 15.392 28.416 15.224 27.144C15.416 27.264 15.56 27.312 15.632 27.312C15.728 27.312 15.848 27.144 15.944 26.808C15.992 26.88 16.088 26.904 16.208 26.904C16.28 26.904 16.376 26.88 16.424 26.808L16.808 26.232L17.24 26.376H17.264C17.312 26.376 17.384 26.304 17.504 26.232C17.624 26.16 17.72 26.112 17.792 26.112L17.864 26.136C18.248 26.328 18.512 26.664 18.632 27.192C18.92 28.416 19.184 29.016 19.496 29.016C19.76 29.016 20.12 28.704 20.504 28.104C20.888 27.504 21.272 26.688 21.704 25.704C21.728 25.896 21.752 25.992 21.8 25.992C21.944 25.992 22.304 25.152 23.192 23.736C24.512 21.6 27.776 17.496 28.616 16.92C29.24 16.488 29.72 16.08 30.056 15.72C30.008 15.96 29.96 16.128 29.96 16.2C29.96 16.272 30.008 16.296 30.056 16.296L30.728 15.96V16.056C30.728 16.176 30.752 16.248 30.824 16.248C30.92 16.248 31.304 15.864 31.352 15.72L31.304 16.056L32.12 15.576L31.928 16.008C32.168 15.84 32.36 15.744 32.48 15.744C32.6 15.744 32.672 15.936 32.672 16.056C32.672 16.248 32.504 16.512 32.24 16.848C31.952 17.232 31.232 17.976 29.072 20.448C28.136 21.504 23.984 27.144 23.192 28.488L21.704 31.008C21.056 32.088 20.648 32.784 20.432 33.048C20.216 33.312 19.952 33.576 19.64 33.816L19.424 33.696L19.232 33.816L19.016 34.056Z" fill="white"/>
</svg>
