<svg width="48" height="48" viewBox="0 0 48 48" fill="none" xmlns="http://www.w3.org/2000/svg">
<circle cx="24" cy="24" r="24" fill="#D83333"/>
<path d="M23.976 29.728C23.5707 29.728 23.3467 29.504 23.304 29.056L22.952 14.912C22.952 14.528 23.0267 14.2187 23.176 13.984C23.3253 13.728 23.592 13.6 23.976 13.6C24.3387 13.6 24.5947 13.728 24.744 13.984C24.9147 14.2187 24.9893 14.528 24.968 14.912L24.616 29.056C24.5947 29.504 24.3813 29.728 23.976 29.728ZM23.88 36C23.5173 36 23.2293 35.8933 23.016 35.68C22.824 35.4453 22.728 35.1467 22.728 34.784V34.08C22.728 33.696 22.824 33.3973 23.016 33.184C23.2293 32.9707 23.5173 32.864 23.88 32.864H24.072C24.456 32.864 24.7333 32.9707 24.904 33.184C25.096 33.3973 25.192 33.696 25.192 34.08V34.784C25.192 35.1467 25.096 35.4453 24.904 35.68C24.7333 35.8933 24.456 36 24.072 36H23.88Z" fill="white"/>
</svg>
