<svg width="20" height="19" viewBox="0 0 20 19" fill="none" xmlns="http://www.w3.org/2000/svg">
<path d="M9.52965 1.30435C9.6885 0.863834 10.3115 0.863834 10.4704 1.30435L12.2948 6.36373C12.3643 6.55649 12.5444 6.68732 12.7492 6.69387L18.1247 6.86556C18.5928 6.88051 18.7853 7.47302 18.4154 7.76023L14.1674 11.0588C14.0056 11.1845 13.9368 11.3962 13.9939 11.593L15.4917 16.7585C15.6221 17.2082 15.1181 17.5744 14.7306 17.3114L10.2808 14.2906C10.1113 14.1756 9.8887 14.1756 9.71917 14.2906L5.26935 17.3114C4.88191 17.5744 4.37789 17.2082 4.5083 16.7585L6.00614 11.593C6.06321 11.3962 5.99442 11.1845 5.83258 11.0588L1.5846 7.76023C1.21473 7.47302 1.40725 6.88051 1.8753 6.86556L7.25083 6.69387C7.45563 6.68732 7.63571 6.55649 7.70522 6.36373L9.52965 1.30435Z" fill="#BCBCBC"/>
</svg>
